<svg width="1502" height="1107" viewBox="0 0 1502 1107" fill="none" xmlns="http://www.w3.org/2000/svg">
<line x1="0.5" y1="2.18557e-08" x2="0.499952" y2="1106" stroke="#F9F2EC"/>
<line x1="79.5001" y1="2.18557e-08" x2="79.5001" y2="1106" stroke="#F9F2EC"/>
<line x1="158.5" y1="2.18557e-08" x2="158.5" y2="1106" stroke="#F9F2EC"/>
<line x1="237.5" y1="2.18557e-08" x2="237.5" y2="1106" stroke="#F9F2EC"/>
<line x1="316.5" y1="2.18557e-08" x2="316.5" y2="1106" stroke="#F9F2EC"/>
<line x1="395.5" y1="2.18557e-08" x2="395.5" y2="1106" stroke="#F9F2EC"/>
<line x1="474.5" y1="2.18557e-08" x2="474.5" y2="1106" stroke="#F9F2EC"/>
<line x1="553.5" y1="2.18557e-08" x2="553.5" y2="1106" stroke="#F9F2EC"/>
<line x1="632.5" y1="2.18557e-08" x2="632.5" y2="1106" stroke="#F9F2EC"/>
<line x1="711.501" y1="2.18557e-08" x2="711.5" y2="1106" stroke="#F9F2EC"/>
<line x1="790.501" y1="2.18557e-08" x2="790.501" y2="1106" stroke="#F9F2EC"/>
<line x1="869.501" y1="2.18557e-08" x2="869.501" y2="1106" stroke="#F9F2EC"/>
<line x1="948.501" y1="2.18557e-08" x2="948.501" y2="1106" stroke="#F9F2EC"/>
<line x1="1027.5" y1="2.18557e-08" x2="1027.5" y2="1106" stroke="#F9F2EC"/>
<line x1="1106.5" y1="2.18557e-08" x2="1106.5" y2="1106" stroke="#F9F2EC"/>
<line x1="1185.5" y1="2.18557e-08" x2="1185.5" y2="1106" stroke="#F9F2EC"/>
<line x1="1264.5" y1="2.18557e-08" x2="1264.5" y2="1106" stroke="#F9F2EC"/>
<line x1="1343.5" y1="2.18557e-08" x2="1343.5" y2="1106" stroke="#F9F2EC"/>
<line x1="1422.5" y1="2.18557e-08" x2="1422.5" y2="1106" stroke="#F9F2EC"/>
<line x1="1501.34" y1="-6.10133e-05" x2="1501.34" y2="1106.23" stroke="#F9F2EC"/>
<line x1="1501" y1="0.500122" x2="-6.10992e-05" y2="0.500033" stroke="#F9F2EC"/>
<line x1="1501" y1="79.5002" x2="-6.10992e-05" y2="79.5001" stroke="#F9F2EC"/>
<line x1="1501" y1="158.5" x2="-6.10992e-05" y2="158.5" stroke="#F9F2EC"/>
<line x1="1501" y1="237.5" x2="-6.10992e-05" y2="237.5" stroke="#F9F2EC"/>
<line x1="1501" y1="316.5" x2="-6.10992e-05" y2="316.5" stroke="#F9F2EC"/>
<line x1="1501" y1="395.5" x2="-6.10992e-05" y2="395.5" stroke="#F9F2EC"/>
<line x1="1501" y1="474.5" x2="-6.10992e-05" y2="474.5" stroke="#F9F2EC"/>
<line x1="1501" y1="553.501" x2="-6.10992e-05" y2="553.5" stroke="#F9F2EC"/>
<line x1="1501" y1="632.501" x2="-6.10352e-05" y2="632.501" stroke="#F9F2EC"/>
<line x1="1501" y1="711.501" x2="-6.10992e-05" y2="711.501" stroke="#F9F2EC"/>
<line x1="1501" y1="790.501" x2="-6.10992e-05" y2="790.501" stroke="#F9F2EC"/>
<line x1="1501" y1="869.501" x2="-6.10992e-05" y2="869.501" stroke="#F9F2EC"/>
<line x1="1501" y1="948.501" x2="-6.10992e-05" y2="948.501" stroke="#F9F2EC"/>
<line x1="1501" y1="1027.5" x2="-6.10992e-05" y2="1027.5" stroke="#F9F2EC"/>
<line x1="1501.84" y1="1106.5" x2="-6.10352e-05" y2="1106.5" stroke="#F9F2EC"/>
</svg>
