<svg width="18" height="19" viewBox="0 0 18 19" fill="none" xmlns="http://www.w3.org/2000/svg">
    <g clip-path="url(#clip0_295_7906)">
        <path d="M14.6249 10.4258C14.6264 10.6551 14.5567 10.8793 14.4255 11.0674C14.2943 11.2555 14.108 11.3984 13.8923 11.4762L10.2606 12.8122L8.9247 16.441C8.84558 16.6559 8.70245 16.8414 8.51461 16.9724C8.32676 17.1035 8.10325 17.1737 7.87423 17.1737C7.6452 17.1737 7.42169 17.1035 7.23385 16.9724C7.04601 16.8414 6.90287 16.6559 6.82376 16.441L5.4843 12.8164L1.85477 11.4805C1.63985 11.4014 1.45436 11.2582 1.32334 11.0704C1.19232 10.8825 1.12207 10.659 1.12207 10.43C1.12207 10.201 1.19232 9.97746 1.32334 9.78962C1.45436 9.60178 1.63985 9.45864 1.85477 9.37953L5.48641 8.04359L6.82235 4.41477C6.90146 4.19984 7.0446 4.01435 7.23244 3.88333C7.42029 3.75231 7.6438 3.68206 7.87282 3.68206C8.10184 3.68206 8.32536 3.75231 8.5132 3.88333C8.70104 4.01435 8.84418 4.19984 8.92329 4.41477L10.2592 8.04641L13.8881 9.38234C14.1034 9.45914 14.2898 9.60061 14.4217 9.78738C14.5536 9.97416 14.6246 10.1971 14.6249 10.4258ZM10.6874 3.67578H11.8124V4.80078C11.8124 4.94997 11.8717 5.09304 11.9772 5.19853C12.0827 5.30402 12.2257 5.36328 12.3749 5.36328C12.5241 5.36328 12.6672 5.30402 12.7727 5.19853C12.8782 5.09304 12.9374 4.94997 12.9374 4.80078V3.67578H14.0624C14.2116 3.67578 14.3547 3.61652 14.4602 3.51103C14.5657 3.40554 14.6249 3.26247 14.6249 3.11328C14.6249 2.9641 14.5657 2.82102 14.4602 2.71553C14.3547 2.61004 14.2116 2.55078 14.0624 2.55078H12.9374V1.42578C12.9374 1.2766 12.8782 1.13352 12.7727 1.02803C12.6672 0.922544 12.5241 0.863281 12.3749 0.863281C12.2257 0.863281 12.0827 0.922544 11.9772 1.02803C11.8717 1.13352 11.8124 1.2766 11.8124 1.42578V2.55078H10.6874C10.5382 2.55078 10.3952 2.61004 10.2897 2.71553C10.1842 2.82102 10.1249 2.9641 10.1249 3.11328C10.1249 3.26247 10.1842 3.40554 10.2897 3.51103C10.3952 3.61652 10.5382 3.67578 10.6874 3.67578ZM16.8749 5.92578H16.3124V5.36328C16.3124 5.2141 16.2532 5.07102 16.1477 4.96553C16.0422 4.86004 15.8991 4.80078 15.7499 4.80078C15.6007 4.80078 15.4577 4.86004 15.3522 4.96553C15.2467 5.07102 15.1874 5.2141 15.1874 5.36328V5.92578H14.6249C14.4757 5.92578 14.3327 5.98504 14.2272 6.09053C14.1217 6.19602 14.0624 6.3391 14.0624 6.48828C14.0624 6.63747 14.1217 6.78054 14.2272 6.88603C14.3327 6.99152 14.4757 7.05078 14.6249 7.05078H15.1874V7.61328C15.1874 7.76247 15.2467 7.90554 15.3522 8.01103C15.4577 8.11652 15.6007 8.17578 15.7499 8.17578C15.8991 8.17578 16.0422 8.11652 16.1477 8.01103C16.2532 7.90554 16.3124 7.76247 16.3124 7.61328V7.05078H16.8749C17.0241 7.05078 17.1672 6.99152 17.2727 6.88603C17.3782 6.78054 17.4374 6.63747 17.4374 6.48828C17.4374 6.3391 17.3782 6.19602 17.2727 6.09053C17.1672 5.98504 17.0241 5.92578 16.8749 5.92578Z" fill="#F1E1D4"/>
    </g>
    <defs>
        <clipPath id="clip0_295_7906">
            <rect width="18" height="18" fill="white" transform="translate(0 0.300781)"/>
        </clipPath>
    </defs>
</svg>
