<svg width="142" height="24" viewBox="0 0 142 24" fill="none" xmlns="http://www.w3.org/2000/svg">
    <g clip-path="url(#clip0_122_11610)">
        <path d="M1.30255 14.9675C0.765543 14.4306 0.405406 13.8105 0.222142 13.1073C0.0431402 12.3999 0.04314 11.6925 0.222142 10.985C0.405406 10.2733 0.763406 9.65112 1.29615 9.11841C1.83742 8.57718 2.4618 8.21707 3.16928 8.03808C3.87677 7.85909 4.58426 7.85909 5.29174 8.03808C5.99923 8.21707 6.62147 8.57506 7.15848 9.11203L8.48821 10.4417L10.4572 8.47277L9.12748 7.14313C8.59048 6.60616 8.23034 5.98609 8.04708 5.28291C7.86807 4.57548 7.86596 3.87018 8.0407 3.167C8.2197 2.45957 8.57984 1.83523 9.12111 1.294C9.65811 0.757033 10.2804 0.399058 10.9878 0.220068C11.6953 0.0410785 12.4007 0.0432035 13.1039 0.226455C13.8114 0.405444 14.4336 0.763431 14.9706 1.3004C15.5077 1.83737 15.8657 2.45957 16.0447 3.167C16.2279 3.87018 16.23 4.57548 16.051 5.28291C15.8763 5.99461 15.5204 6.61895 14.9834 7.15592L13.6601 8.47917L15.6227 10.4417L16.946 9.11841C17.483 8.58144 18.1032 8.22133 18.8064 8.03808C19.5139 7.85909 20.2192 7.86122 20.9224 8.04447C21.6299 8.22346 22.2543 8.58358 22.7956 9.12481C23.3326 9.66178 23.6906 10.284 23.8696 10.9914C24.0529 11.6946 24.0529 12.3978 23.8696 13.1009C23.6906 13.8084 23.3326 14.4306 22.7956 14.9675C22.2543 15.5088 21.6299 15.8689 20.9224 16.0479C20.2192 16.2226 19.5139 16.2205 18.8064 16.0415C18.1074 15.8625 17.4894 15.5045 16.9524 14.9675L15.6291 13.6443L13.6601 15.6132L14.9834 16.9364C15.5204 17.4734 15.8763 18.0935 16.051 18.7966C16.23 19.5041 16.23 20.2115 16.051 20.919C15.872 21.6264 15.5119 22.2507 14.9706 22.7919C14.4379 23.3247 13.8156 23.6826 13.1039 23.8659C12.3964 24.0449 11.6889 24.0449 10.9814 23.8659C10.2825 23.6869 9.66449 23.3289 9.12748 22.7919C8.58621 22.2507 8.22396 21.6285 8.0407 20.9253C7.8617 20.2179 7.8617 19.5105 8.0407 18.803C8.22823 18.0956 8.58836 17.4755 9.12111 16.9428L10.4572 15.6068L8.4946 13.6443L7.15848 14.9803C6.62573 15.513 6.00135 15.8689 5.28534 16.0479C4.57786 16.2269 3.87038 16.2269 3.1629 16.0479C2.45967 15.8646 1.83956 15.5045 1.30255 14.9675ZM2.90078 13.3694C3.14371 13.6123 3.425 13.7743 3.74464 13.8552C4.06855 13.9405 4.39033 13.9426 4.70998 13.8616C5.02963 13.7807 5.31092 13.6187 5.55385 13.3758L6.88997 12.0398L5.56024 10.7101C5.31731 10.4672 5.03389 10.3074 4.70998 10.2307C4.39033 10.1497 4.07069 10.1497 3.75104 10.2307C3.4314 10.3117 3.14797 10.4757 2.90078 10.7229C2.65784 10.9658 2.49377 11.245 2.40853 11.5603C2.32755 11.88 2.32755 12.1996 2.40853 12.5192C2.49377 12.8431 2.65784 13.1265 2.90078 13.3694ZM10.7257 5.54501L12.0555 6.87464L13.3788 5.5514C13.626 5.30423 13.788 5.02296 13.8647 4.70759C13.9456 4.38797 13.9435 4.06621 13.8583 3.74232C13.7773 3.4227 13.6153 3.14143 13.3724 2.89851C13.1295 2.6556 12.8482 2.49366 12.5285 2.41269C12.2089 2.33172 11.8892 2.33172 11.5696 2.41269C11.2542 2.4894 10.9729 2.65134 10.7257 2.89851C10.4828 3.14143 10.3166 3.4227 10.2271 3.74232C10.1461 4.06195 10.1461 4.38157 10.2271 4.7012C10.3166 5.02082 10.4828 5.30209 10.7257 5.54501ZM16.8529 12.0462L18.1763 13.3694C18.4192 13.6123 18.6984 13.7764 19.0138 13.8616C19.3334 13.9426 20.0253 13.9405 20.3407 13.8552C20.6604 13.7743 20.9438 13.6102 21.191 13.363C21.4381 13.1159 21.6001 12.8346 21.6768 12.5192C21.7621 12.2039 21.7642 11.8864 21.6832 11.5667C21.6022 11.2471 21.4403 10.9658 21.1974 10.7229C20.9502 10.4757 20.6667 10.3117 20.3471 10.2307C20.0274 10.1497 19.3334 10.1497 19.0138 10.2307C18.7026 10.3117 18.4235 10.4757 18.1763 10.7229L16.8529 12.0462ZM10.7257 21.1938C10.9687 21.4367 11.25 21.5987 11.5696 21.6797C11.8892 21.7606 12.2068 21.7585 12.5222 21.6733C12.8418 21.5923 13.1231 21.4303 13.366 21.1874C13.6132 20.9403 13.7773 20.6569 13.8583 20.3372C13.9435 20.0219 13.9456 19.7044 13.8647 19.3847C13.788 19.0609 13.6281 18.7775 13.3852 18.5346L12.0618 17.2113L10.7257 18.5473C10.4828 18.7903 10.3187 19.0694 10.2335 19.3847C10.1525 19.7044 10.1525 20.024 10.2335 20.3436C10.3144 20.6632 10.4785 20.9467 10.7257 21.1938ZM10.0928 12.0462L12.0555 14.0087L14.0245 12.0398L12.0618 10.0773L10.0928 12.0462Z" fill="#F1E1D4"/>
    </g>
    <path d="M38.8288 9.17561C38.283 7.53855 36.8502 6.01518 34.6214 6.01518C31.642 6.01518 29.4814 8.6754 29.4814 12.4042C29.4814 16.1331 31.6193 18.816 34.6214 18.816C36.4863 18.816 38.1238 17.611 38.8288 15.9284V18.5432H41.6489V1.26318H38.8288V9.17561ZM35.6448 16.8152C33.5297 16.8152 32.3698 15.1099 32.3698 12.4042C32.3698 9.72129 33.5297 8.01603 35.6448 8.01603C37.7599 8.01603 38.9198 9.72129 38.9198 12.4042C38.9198 15.1099 37.7599 16.8152 35.6448 16.8152Z" fill="#F1E1D4"/>
    <path d="M48.8234 16.8152L45.0936 6.28803H42.228L46.1625 17.2244H48.687L46.8903 22.9996H49.8241L55.0777 6.28803H52.0984L48.8234 16.8152Z" fill="#F1E1D4"/>
    <path d="M70.0216 6.01518C67.8383 6.01518 66.6557 7.53855 66.1553 9.03918C65.7005 7.47034 64.4724 6.01518 62.3573 6.01518C60.2877 6.01518 59.1732 7.33392 58.6274 8.81182V6.28803H55.8073V18.5432H58.6502V11.4266C58.6502 9.08466 59.4689 8.03876 61.0837 8.03876C62.6757 8.03876 63.4944 9.08466 63.4944 11.3811V18.5432H66.3373V11.4266C66.3373 9.08466 67.156 8.03876 68.7708 8.03876C70.3628 8.03876 71.1815 9.08466 71.1815 11.3811V18.5432H74.0244V10.8354C74.0244 8.03876 72.7508 6.01518 70.0216 6.01518Z" fill="#F1E1D4"/>
    <path d="M87.3171 12.336C87.3171 8.51624 84.9518 6.01518 81.3357 6.01518C77.6514 6.01518 75.3088 8.65266 75.3088 12.4042C75.3088 16.1331 77.5831 18.816 81.3357 18.816C84.2013 18.816 86.2709 17.5428 87.0442 14.928H84.1558C83.7237 16.1103 82.9277 16.8152 81.3585 16.8152C79.63 16.8152 78.4246 15.6101 78.1972 13.2455H87.2489C87.2944 12.9272 87.3171 12.6089 87.3171 12.336ZM81.3357 8.01603C83.0869 8.01603 84.2696 9.31203 84.406 11.2674H78.2199C78.5156 9.06192 79.6755 8.01603 81.3357 8.01603Z" fill="#F1E1D4"/>
    <path d="M95.4004 6.01518C93.2854 6.01518 92.08 7.28845 91.5114 8.78908V6.28803H88.6913V18.5432H91.5341V11.4266C91.5341 9.08466 92.5348 8.03876 94.1268 8.03876C95.7416 8.03876 96.7195 9.06192 96.7195 11.3811V18.5432H99.5624V10.8354C99.5624 8.10697 98.2206 6.01518 95.4004 6.01518Z" fill="#F1E1D4"/>
    <path d="M106.14 18.816C109.279 18.816 111.576 17.4063 111.576 14.9735C111.576 13.0181 110.462 11.8813 107.892 11.3356L105.959 10.9263C104.48 10.608 103.73 10.3124 103.73 9.47118C103.73 8.53897 104.844 8.01603 106.072 8.01603C107.164 8.01603 108.165 8.51624 108.483 9.42571H111.349C110.825 7.15203 108.642 6.01518 106.049 6.01518C103.252 6.01518 100.978 7.4476 100.978 9.69855C100.978 11.563 102.342 12.5861 104.571 13.0636L106.504 13.4956C108.278 13.8594 108.847 14.3141 108.847 15.2463C108.847 16.2013 107.937 16.8152 106.209 16.8152C105.049 16.8152 103.866 16.3832 103.57 14.9053H100.705C101.069 17.4973 103.275 18.816 106.14 18.816Z" fill="#F1E1D4"/>
    <path d="M115.824 4.40087V1.26318H112.845V4.40087H115.824ZM115.756 18.5432V6.28803H112.913V18.5432H115.756Z" fill="#F1E1D4"/>
    <path d="M123.32 18.816C127.118 18.816 129.506 16.2013 129.506 12.4042C129.506 8.62992 127.118 6.01518 123.32 6.01518C119.545 6.01518 117.157 8.62992 117.157 12.4042C117.157 16.2013 119.545 18.816 123.32 18.816ZM123.32 16.8152C121.228 16.8152 120.045 15.1099 120.045 12.4042C120.045 9.72129 121.228 8.01603 123.32 8.01603C125.435 8.01603 126.595 9.72129 126.595 12.4042C126.595 15.1099 125.435 16.8152 123.32 16.8152Z" fill="#F1E1D4"/>
    <path d="M137.581 6.01518C135.466 6.01518 134.261 7.28845 133.692 8.78908V6.28803H130.872V18.5432H133.715V11.4266C133.715 9.08466 134.716 8.03876 136.308 8.03876C137.923 8.03876 138.901 9.06192 138.901 11.3811V18.5432H141.743V10.8354C141.743 8.10697 140.402 6.01518 137.581 6.01518Z" fill="#F1E1D4"/>
    <defs>
        <clipPath id="clip0_122_11610">
            <rect width="24.0064" height="24" fill="white"/>
        </clipPath>
    </defs>
</svg>
