<svg width="24" height="14" viewBox="0 0 24 14" fill="none" xmlns="http://www.w3.org/2000/svg">
    <path d="M6.78261 0.415039C4.98375 0.415039 3.25857 1.12963 1.98658 2.40162C0.714594 3.6736 0 5.39879 0 7.19765C0 8.99651 0.714594 10.7217 1.98658 11.9937C3.25857 13.2657 4.98375 13.9803 6.78261 13.9803C8.58147 13.9803 10.3067 13.2657 11.5786 11.9937C12.8506 10.7217 13.5652 8.99651 13.5652 7.19765C13.5652 5.39879 12.8506 3.6736 11.5786 2.40162C10.3067 1.12963 8.58147 0.415039 6.78261 0.415039ZM17.4783 0.936778C15.6052 0.936778 14.087 3.74008 14.087 7.19765C14.087 7.84617 14.1402 8.47121 14.2393 9.05921C14.3713 9.84339 14.5847 10.5613 14.8612 11.1801C14.9995 11.4895 15.1534 11.7738 15.3209 12.029C15.6558 12.5392 16.045 12.9331 16.4697 13.1773C16.7885 13.3599 17.1271 13.4585 17.4783 13.4585C17.8294 13.4585 18.168 13.3599 18.4868 13.1773C18.9115 12.9331 19.3007 12.5392 19.6357 12.029C19.8031 11.7738 19.957 11.4895 20.0953 11.1801C20.3718 10.5618 20.5852 9.84339 20.7172 9.05921C20.8163 8.47121 20.8696 7.84617 20.8696 7.19765C20.8696 3.74008 19.3513 0.936778 17.4783 0.936778ZM22.6957 1.45852C22.5605 1.45852 22.4301 1.54878 22.308 1.71678C22.2261 1.82843 22.1478 1.97452 22.0743 2.15139C22.0372 2.23956 22.0012 2.33556 21.9668 2.43886C21.8974 2.64495 21.8327 2.88026 21.7737 3.13956C21.6558 3.65869 21.5603 4.27747 21.4941 4.96408C21.4612 5.30739 21.4357 5.66791 21.4179 6.04147C21.4002 6.41452 21.3913 6.80165 21.3913 7.19765C21.3913 7.59365 21.4002 7.98078 21.4179 8.35434C21.4351 8.72791 21.4607 9.08843 21.4941 9.43173C21.5603 10.1183 21.6558 10.7366 21.7737 11.2563C21.8327 11.5161 21.8974 11.7509 21.9668 11.957C22.0012 12.0603 22.0372 12.1563 22.0743 12.2444C22.1483 12.4213 22.2266 12.5674 22.308 12.679C22.4301 12.8465 22.5605 12.9368 22.6957 12.9368C23.4162 12.9368 24 10.3672 24 7.19765C24 4.02808 23.4162 1.45852 22.6957 1.45852Z" fill="#F1E1D4"/>
</svg>
